<svg width="100%" height="100%" viewBox="0 0 200 200" xmlns="http://www.w3.org/2000/svg">
    <g fill="url(#gradient)">
        <circle cx="100" cy="100" r="80" />
        <circle cx="100" cy="100" r="70" />
        <circle cx="100" cy="100" r="60" />
        <circle cx="100" cy="100" r="50" />
    </g>

    <!-- Light grid lines -->
    <g stroke="#10375C " stroke-width="0.5">
        <!-- Vertical grid lines -->
        <line x1="20" y1="0" x2="20" y2="200" />
        <line x1="40" y1="0" x2="40" y2="200" />
        <line x1="60" y1="0" x2="60" y2="200" />
        <line x1="80" y1="0" x2="80" y2="200" />
        <line x1="120" y1="0" x2="120" y2="200" />
        <line x1="140" y1="0" x2="140" y2="200" />
        <line x1="160" y1="0" x2="160" y2="200" />
        <line x1="180" y1="0" x2="180" y2="200" />

        <!-- Horizontal grid lines -->
        <line x1="0" y1="20" x2="200" y2="20" />
        <line x1="0" y1="40" x2="200" y2="40" />
        <line x1="0" y1="60" x2="200" y2="60" />
        <line x1="0" y1="80" x2="200" y2="80" />
        <line x1="0" y1="120" x2="200" y2="120" />
        <line x1="0" y1="140" x2="200" y2="140" />
        <line x1="0" y1="160" x2="200" y2="160" />
        <line x1="0" y1="180" x2="200" y2="180" />
    </g>
</svg>