<svg xmlns="http://www.w3.org/2000/svg" width="933" height="385" fill="none"><g opacity=".6" style="mix-blend-mode:plus-lighter"><g filter="url(#a)" opacity=".5"><g filter="url(#b)" opacity=".8"><path fill="url(#c)" d="m238.961-187.2-5.075 8.412L434.892 12.436 573.243 140.16 439.966 4.024 238.961-187.2z"/></g><g filter="url(#d)" opacity=".8"><path fill="url(#e)" d="m251.716-224.661-5.075 8.412L447.647-25.024l138.352 127.723L452.721-33.436 251.716-224.661z"/></g><g filter="url(#f)" opacity=".8" style="mix-blend-mode:soft-light"><path fill="url(#g)" d="m191.702-201.927-5.075 8.412L387.633-2.291l138.351 127.724L392.707-10.702 191.702-201.927z"/></g><g filter="url(#h)" opacity=".2" style="mix-blend-mode:plus-lighter"><path fill="url(#i)" d="m261.953-187.483-5.074 8.412L457.884 12.153l138.352 127.724L462.959 3.741 261.953-187.483z"/></g><g filter="url(#j)" opacity=".8"><path fill="url(#k)" d="m247.343-181.14-4.403 9.18L487.661 68.212 655.58 229.036 492.064 59.032 247.343-181.14z"/></g><g filter="url(#l)" opacity=".8"><path fill="url(#m)" d="m256.222-223.001-4.402 9.179L496.541 26.35 664.46 187.174 500.944 17.17 256.222-223.001z"/></g><g filter="url(#n)" opacity=".8" style="mix-blend-mode:soft-light"><path fill="url(#o)" d="m193.859-202.799-4.403 9.18 244.722 240.17 167.919 160.825L438.581 37.372 193.859-202.799z"/></g><g filter="url(#p)" opacity=".2" style="mix-blend-mode:plus-lighter"><path fill="url(#q)" d="m272.364-179.178-4.403 9.18L512.683 70.173l167.919 160.824L517.086 60.993 272.364-179.178z"/></g><g filter="url(#r)" opacity=".8"><path fill="url(#s)" d="m235.451-176.313-4.409 9.121L472.078 64.422l165.41 155.015L476.486 55.3 235.451-176.313z"/></g><g filter="url(#t)" opacity=".8"><path fill="url(#u)" d="m244.467-217.687-4.409 9.121L481.093 23.048l165.411 155.015L485.502 13.927 244.467-217.687z"/></g><g filter="url(#v)" opacity=".8" style="mix-blend-mode:soft-light"><path fill="url(#w)" d="m182.608-196.588-4.408 9.121L419.235 44.147l165.41 155.015L423.643 35.026 182.608-196.588z"/></g><g filter="url(#x)" opacity=".2" style="mix-blend-mode:plus-lighter"><path fill="url(#y)" d="m260.217-174.871-4.409 9.121L496.843 65.864 662.254 220.88 501.252 56.743 260.217-174.87z"/></g><g filter="url(#z)" opacity=".8"><path fill="url(#A)" d="m286.597-214.791-11.68 10.655L490.073 74.088l149.93 186.3-138.25-196.955L286.597-214.79z"/></g><g filter="url(#B)" opacity=".8"><path fill="url(#C)" d="m332.108-255.83-11.68 10.655L535.585 33.049l149.93 186.3-138.25-196.955L332.108-255.83z"/></g><g filter="url(#D)" opacity=".8" style="mix-blend-mode:soft-light"><path fill="url(#E)" d="m221.748-239.84-11.68 10.655L425.225 49.039l149.93 186.299-138.25-196.954L221.748-239.84z"/></g><g filter="url(#F)" opacity=".2" style="mix-blend-mode:plus-lighter"><path fill="url(#G)" d="m272.379-220.708-11.68 10.655L475.856 68.171 625.785 254.47 487.535 57.516 272.379-220.708z"/></g><g filter="url(#H)" opacity=".2" style="mix-blend-mode:plus-lighter"><path fill="url(#I)" d="m377.699-127.894-11.68 10.656 215.157 278.224 149.93 186.299-138.25-196.954-215.157-278.225z"/></g></g><g opacity=".5"><g filter="url(#J)" opacity=".8"><path fill="url(#K)" d="m266.48-222.96-9.514 7.903 143.3 169.685L500.634 67.835 409.78-53.275 266.48-222.96z"/></g><g filter="url(#L)" opacity=".8"><path fill="url(#M)" d="m297.664-257.846-9.515 7.904L431.45-80.258 531.817 32.95 440.964-88.161l-143.3-169.685z"/></g><g filter="url(#N)" opacity=".8" style="mix-blend-mode:soft-light"><path fill="url(#O)" d="m219.322-235.025-9.515 7.903 143.3 169.685L453.475 55.77 362.622-65.34l-143.3-169.685z"/></g><g filter="url(#P)" opacity=".2" style="mix-blend-mode:plus-lighter"><path fill="url(#Q)" d="m292.741-223.945-9.515 7.903 143.3 169.685L526.894 66.85 436.041-54.26l-143.3-169.685z"/></g></g><g opacity=".5"><g filter="url(#R)" opacity=".8"><path fill="url(#S)" d="m260.874-223.814-8.545 7.369L383.01-56.146 474.5 50.827 391.554-63.516l-130.68-160.298z"/></g><g filter="url(#T)" opacity=".8"><path fill="url(#U)" d="m288.811-256.405-8.544 7.369 130.68 160.299 91.49 106.974-82.945-114.344-130.681-160.298z"/></g><g filter="url(#V)" opacity=".8" style="mix-blend-mode:soft-light"><path fill="url(#W)" d="m218.174-235.437-8.545 7.37 130.68 160.298 91.49 106.974L348.854-75.14l-130.68-160.298z"/></g><g filter="url(#X)" opacity=".2" style="mix-blend-mode:plus-lighter"><path fill="url(#Y)" d="m284.599-224.583-8.545 7.37 130.68 160.298 91.49 106.974-82.945-114.344-130.68-160.298z"/></g></g><g filter="url(#Z)" opacity=".8"><path fill="url(#aa)" d="m253.621-224.26-7.239 6.81L361.273-65.124l80.356 101.71-73.117-108.52L253.621-224.26z"/></g><g filter="url(#ab)" opacity=".8"><path fill="url(#ac)" d="m277.159-254.503-7.239 6.81L384.811-95.367l80.356 101.71-73.117-108.52-114.891-152.326z"/></g><g filter="url(#ad)" opacity=".8" style="mix-blend-mode:soft-light"><path fill="url(#ae)" d="m216.705-235.745-7.239 6.81L324.357-76.609l80.355 101.711-73.116-108.52-114.891-152.327z"/></g><g filter="url(#af)" opacity=".2" style="mix-blend-mode:plus-lighter"><path fill="url(#ag)" d="m274.021-224.665-7.238 6.809L381.674-65.529l80.355 101.71-73.117-108.52-114.891-152.326z"/></g><g opacity=".5"><g filter="url(#ah)" opacity=".8"><path fill="url(#ai)" d="m276.794-223.596-11.39 8.855L432.467-29.304 549.565 94.349 443.856-38.16 276.794-223.596z"/></g><g filter="url(#aj)" opacity=".8"><path fill="url(#ak)" d="m294.725-237.067-11.389 8.855L450.398-42.775 567.497 80.878 461.788-51.63 294.725-237.067z"/></g><g filter="url(#al)" opacity=".8"><path fill="url(#am)" d="m321.138-257.752-11.389 8.855L476.811-63.46 593.91 60.193 488.201-72.315 321.138-257.752z"/></g><g filter="url(#an)" opacity=".8" style="mix-blend-mode:soft-light"><path fill="url(#ao)" d="m221.139-236.286-11.389 8.855L376.812-41.994 493.911 81.659 388.202-50.85 221.139-236.286z"/></g><g filter="url(#ap)" opacity=".2" style="mix-blend-mode:plus-lighter"><path fill="url(#aq)" d="m264.631-226.691-11.39 8.855L420.304-32.399 537.402 91.254 431.693-41.254 264.631-226.69z"/></g><g filter="url(#ar)" opacity=".2" style="mix-blend-mode:plus-lighter"><path fill="url(#as)" d="m350.319-167.783-11.389 8.855L505.992 26.509l117.099 123.653L517.382 17.654 350.319-167.783z"/></g></g></g><g filter="url(#at)"><path fill="url(#au)" d="M0 0h28.704v598.773H0z" transform="matrix(-.64453 .76458 .76501 .64401 298.066 -177.319)"/></g><g filter="url(#av)"><path fill="url(#aw)" d="M0 0h21.359v257.36H0z" transform="matrix(-.64453 .76458 .76501 .64401 320.859 -153.331)"/></g><defs><filter id="a" width="723.499" height="773.708" x="92.903" y="-341.126" color-interpolation-filters="sRGB" filterUnits="userSpaceOnUse"><feFlood flood-opacity="0" result="BackgroundImageFix"/><feBlend in="SourceGraphic" in2="BackgroundImageFix" result="shape"/><feGaussianBlur result="effect1_foregroundBlur_239_431496" stdDeviation="42.648"/></filter><filter id="b" width="486.257" height="474.259" x="160.436" y="-260.65" color-interpolation-filters="sRGB" filterUnits="userSpaceOnUse"><feFlood flood-opacity="0" result="BackgroundImageFix"/><feBlend in="SourceGraphic" in2="BackgroundImageFix" result="shape"/><feGaussianBlur result="effect1_foregroundBlur_239_431496" stdDeviation="36.725"/></filter><filter id="d" width="486.257" height="474.259" x="173.192" y="-298.11" color-interpolation-filters="sRGB" filterUnits="userSpaceOnUse"><feFlood flood-opacity="0" result="BackgroundImageFix"/><feBlend in="SourceGraphic" in2="BackgroundImageFix" result="shape"/><feGaussianBlur result="effect1_foregroundBlur_239_431496" stdDeviation="36.725"/></filter><filter id="f" width="486.257" height="474.259" x="113.178" y="-275.377" color-interpolation-filters="sRGB" filterUnits="userSpaceOnUse"><feFlood flood-opacity="0" result="BackgroundImageFix"/><feBlend in="SourceGraphic" in2="BackgroundImageFix" result="shape"/><feGaussianBlur result="effect1_foregroundBlur_239_431496" stdDeviation="36.725"/></filter><filter id="h" width="422.929" height="410.931" x="215.093" y="-229.269" color-interpolation-filters="sRGB" filterUnits="userSpaceOnUse"><feFlood flood-opacity="0" result="BackgroundImageFix"/><feBlend in="SourceGraphic" in2="BackgroundImageFix" result="shape"/><feGaussianBlur result="effect1_foregroundBlur_239_431496" stdDeviation="20.893"/></filter><filter id="j" width="559.54" height="557.075" x="169.49" y="-254.589" color-interpolation-filters="sRGB" filterUnits="userSpaceOnUse"><feFlood flood-opacity="0" result="BackgroundImageFix"/><feBlend in="SourceGraphic" in2="BackgroundImageFix" result="shape"/><feGaussianBlur result="effect1_foregroundBlur_239_431496" stdDeviation="36.725"/></filter><filter id="l" width="559.54" height="557.075" x="178.37" y="-296.451" color-interpolation-filters="sRGB" filterUnits="userSpaceOnUse"><feFlood flood-opacity="0" result="BackgroundImageFix"/><feBlend in="SourceGraphic" in2="BackgroundImageFix" result="shape"/><feGaussianBlur result="effect1_foregroundBlur_239_431496" stdDeviation="36.725"/></filter><filter id="n" width="559.54" height="557.075" x="116.006" y="-276.249" color-interpolation-filters="sRGB" filterUnits="userSpaceOnUse"><feFlood flood-opacity="0" result="BackgroundImageFix"/><feBlend in="SourceGraphic" in2="BackgroundImageFix" result="shape"/><feGaussianBlur result="effect1_foregroundBlur_239_431496" stdDeviation="36.725"/></filter><filter id="p" width="496.212" height="493.747" x="226.176" y="-220.964" color-interpolation-filters="sRGB" filterUnits="userSpaceOnUse"><feFlood flood-opacity="0" result="BackgroundImageFix"/><feBlend in="SourceGraphic" in2="BackgroundImageFix" result="shape"/><feGaussianBlur result="effect1_foregroundBlur_239_431496" stdDeviation="20.893"/></filter><filter id="r" width="553.345" height="542.65" x="157.593" y="-249.763" color-interpolation-filters="sRGB" filterUnits="userSpaceOnUse"><feFlood flood-opacity="0" result="BackgroundImageFix"/><feBlend in="SourceGraphic" in2="BackgroundImageFix" result="shape"/><feGaussianBlur result="effect1_foregroundBlur_239_431496" stdDeviation="36.725"/></filter><filter id="t" width="553.345" height="542.65" x="166.608" y="-291.137" color-interpolation-filters="sRGB" filterUnits="userSpaceOnUse"><feFlood flood-opacity="0" result="BackgroundImageFix"/><feBlend in="SourceGraphic" in2="BackgroundImageFix" result="shape"/><feGaussianBlur result="effect1_foregroundBlur_239_431496" stdDeviation="36.725"/></filter><filter id="v" width="553.345" height="542.65" x="104.75" y="-270.038" color-interpolation-filters="sRGB" filterUnits="userSpaceOnUse"><feFlood flood-opacity="0" result="BackgroundImageFix"/><feBlend in="SourceGraphic" in2="BackgroundImageFix" result="shape"/><feGaussianBlur result="effect1_foregroundBlur_239_431496" stdDeviation="36.725"/></filter><filter id="x" width="490.017" height="479.321" x="214.022" y="-216.656" color-interpolation-filters="sRGB" filterUnits="userSpaceOnUse"><feFlood flood-opacity="0" result="BackgroundImageFix"/><feBlend in="SourceGraphic" in2="BackgroundImageFix" result="shape"/><feGaussianBlur result="effect1_foregroundBlur_239_431496" stdDeviation="20.893"/></filter><filter id="z" width="511.986" height="622.078" x="201.467" y="-288.241" color-interpolation-filters="sRGB" filterUnits="userSpaceOnUse"><feFlood flood-opacity="0" result="BackgroundImageFix"/><feBlend in="SourceGraphic" in2="BackgroundImageFix" result="shape"/><feGaussianBlur result="effect1_foregroundBlur_239_431496" stdDeviation="36.725"/></filter><filter id="B" width="511.986" height="622.078" x="246.979" y="-329.28" color-interpolation-filters="sRGB" filterUnits="userSpaceOnUse"><feFlood flood-opacity="0" result="BackgroundImageFix"/><feBlend in="SourceGraphic" in2="BackgroundImageFix" result="shape"/><feGaussianBlur result="effect1_foregroundBlur_239_431496" stdDeviation="36.725"/></filter><filter id="D" width="511.986" height="622.078" x="136.618" y="-313.29" color-interpolation-filters="sRGB" filterUnits="userSpaceOnUse"><feFlood flood-opacity="0" result="BackgroundImageFix"/><feBlend in="SourceGraphic" in2="BackgroundImageFix" result="shape"/><feGaussianBlur result="effect1_foregroundBlur_239_431496" stdDeviation="36.725"/></filter><filter id="F" width="448.658" height="558.75" x="218.913" y="-262.494" color-interpolation-filters="sRGB" filterUnits="userSpaceOnUse"><feFlood flood-opacity="0" result="BackgroundImageFix"/><feBlend in="SourceGraphic" in2="BackgroundImageFix" result="shape"/><feGaussianBlur result="effect1_foregroundBlur_239_431496" stdDeviation="20.893"/></filter><filter id="H" width="448.658" height="558.75" x="324.233" y="-169.679" color-interpolation-filters="sRGB" filterUnits="userSpaceOnUse"><feFlood flood-opacity="0" result="BackgroundImageFix"/><feBlend in="SourceGraphic" in2="BackgroundImageFix" result="shape"/><feGaussianBlur result="effect1_foregroundBlur_239_431496" stdDeviation="20.893"/></filter><filter id="J" width="390.567" height="437.695" x="183.516" y="-296.41" color-interpolation-filters="sRGB" filterUnits="userSpaceOnUse"><feFlood flood-opacity="0" result="BackgroundImageFix"/><feBlend in="SourceGraphic" in2="BackgroundImageFix" result="shape"/><feGaussianBlur result="effect1_foregroundBlur_239_431496" stdDeviation="36.725"/></filter><filter id="L" width="390.567" height="437.695" x="214.7" y="-331.295" color-interpolation-filters="sRGB" filterUnits="userSpaceOnUse"><feFlood flood-opacity="0" result="BackgroundImageFix"/><feBlend in="SourceGraphic" in2="BackgroundImageFix" result="shape"/><feGaussianBlur result="effect1_foregroundBlur_239_431496" stdDeviation="36.725"/></filter><filter id="N" width="390.567" height="437.695" x="136.358" y="-308.475" color-interpolation-filters="sRGB" filterUnits="userSpaceOnUse"><feFlood flood-opacity="0" result="BackgroundImageFix"/><feBlend in="SourceGraphic" in2="BackgroundImageFix" result="shape"/><feGaussianBlur result="effect1_foregroundBlur_239_431496" stdDeviation="36.725"/></filter><filter id="P" width="327.239" height="374.367" x="241.441" y="-265.731" color-interpolation-filters="sRGB" filterUnits="userSpaceOnUse"><feFlood flood-opacity="0" result="BackgroundImageFix"/><feBlend in="SourceGraphic" in2="BackgroundImageFix" result="shape"/><feGaussianBlur result="effect1_foregroundBlur_239_431496" stdDeviation="20.893"/></filter><filter id="R" width="369.07" height="421.542" x="178.879" y="-297.264" color-interpolation-filters="sRGB" filterUnits="userSpaceOnUse"><feFlood flood-opacity="0" result="BackgroundImageFix"/><feBlend in="SourceGraphic" in2="BackgroundImageFix" result="shape"/><feGaussianBlur result="effect1_foregroundBlur_239_431496" stdDeviation="36.725"/></filter><filter id="T" width="369.07" height="421.542" x="206.817" y="-329.855" color-interpolation-filters="sRGB" filterUnits="userSpaceOnUse"><feFlood flood-opacity="0" result="BackgroundImageFix"/><feBlend in="SourceGraphic" in2="BackgroundImageFix" result="shape"/><feGaussianBlur result="effect1_foregroundBlur_239_431496" stdDeviation="36.725"/></filter><filter id="V" width="369.07" height="421.542" x="136.179" y="-308.887" color-interpolation-filters="sRGB" filterUnits="userSpaceOnUse"><feFlood flood-opacity="0" result="BackgroundImageFix"/><feBlend in="SourceGraphic" in2="BackgroundImageFix" result="shape"/><feGaussianBlur result="effect1_foregroundBlur_239_431496" stdDeviation="36.725"/></filter><filter id="X" width="305.742" height="358.213" x="234.268" y="-266.369" color-interpolation-filters="sRGB" filterUnits="userSpaceOnUse"><feFlood flood-opacity="0" result="BackgroundImageFix"/><feBlend in="SourceGraphic" in2="BackgroundImageFix" result="shape"/><feGaussianBlur result="effect1_foregroundBlur_239_431496" stdDeviation="20.893"/></filter><filter id="Z" width="342.146" height="407.746" x="172.933" y="-297.71" color-interpolation-filters="sRGB" filterUnits="userSpaceOnUse"><feFlood flood-opacity="0" result="BackgroundImageFix"/><feBlend in="SourceGraphic" in2="BackgroundImageFix" result="shape"/><feGaussianBlur result="effect1_foregroundBlur_239_431496" stdDeviation="36.725"/></filter><filter id="ab" width="342.146" height="407.746" x="196.47" y="-327.953" color-interpolation-filters="sRGB" filterUnits="userSpaceOnUse"><feFlood flood-opacity="0" result="BackgroundImageFix"/><feBlend in="SourceGraphic" in2="BackgroundImageFix" result="shape"/><feGaussianBlur result="effect1_foregroundBlur_239_431496" stdDeviation="36.725"/></filter><filter id="ad" width="342.146" height="407.746" x="136.016" y="-309.194" color-interpolation-filters="sRGB" filterUnits="userSpaceOnUse"><feFlood flood-opacity="0" result="BackgroundImageFix"/><feBlend in="SourceGraphic" in2="BackgroundImageFix" result="shape"/><feGaussianBlur result="effect1_foregroundBlur_239_431496" stdDeviation="36.725"/></filter><filter id="af" width="278.818" height="344.418" x="224.997" y="-266.451" color-interpolation-filters="sRGB" filterUnits="userSpaceOnUse"><feFlood flood-opacity="0" result="BackgroundImageFix"/><feBlend in="SourceGraphic" in2="BackgroundImageFix" result="shape"/><feGaussianBlur result="effect1_foregroundBlur_239_431496" stdDeviation="20.893"/></filter><filter id="ah" width="431.061" height="464.844" x="191.954" y="-297.046" color-interpolation-filters="sRGB" filterUnits="userSpaceOnUse"><feFlood flood-opacity="0" result="BackgroundImageFix"/><feBlend in="SourceGraphic" in2="BackgroundImageFix" result="shape"/><feGaussianBlur result="effect1_foregroundBlur_239_431496" stdDeviation="36.725"/></filter><filter id="aj" width="431.061" height="464.844" x="209.886" y="-310.517" color-interpolation-filters="sRGB" filterUnits="userSpaceOnUse"><feFlood flood-opacity="0" result="BackgroundImageFix"/><feBlend in="SourceGraphic" in2="BackgroundImageFix" result="shape"/><feGaussianBlur result="effect1_foregroundBlur_239_431496" stdDeviation="36.725"/></filter><filter id="al" width="431.061" height="464.844" x="236.299" y="-331.202" color-interpolation-filters="sRGB" filterUnits="userSpaceOnUse"><feFlood flood-opacity="0" result="BackgroundImageFix"/><feBlend in="SourceGraphic" in2="BackgroundImageFix" result="shape"/><feGaussianBlur result="effect1_foregroundBlur_239_431496" stdDeviation="36.725"/></filter><filter id="an" width="431.061" height="464.844" x="136.3" y="-309.736" color-interpolation-filters="sRGB" filterUnits="userSpaceOnUse"><feFlood flood-opacity="0" result="BackgroundImageFix"/><feBlend in="SourceGraphic" in2="BackgroundImageFix" result="shape"/><feGaussianBlur result="effect1_foregroundBlur_239_431496" stdDeviation="36.725"/></filter><filter id="ap" width="367.733" height="401.516" x="211.455" y="-268.477" color-interpolation-filters="sRGB" filterUnits="userSpaceOnUse"><feFlood flood-opacity="0" result="BackgroundImageFix"/><feBlend in="SourceGraphic" in2="BackgroundImageFix" result="shape"/><feGaussianBlur result="effect1_foregroundBlur_239_431496" stdDeviation="20.893"/></filter><filter id="ar" width="367.733" height="401.516" x="297.144" y="-209.569" color-interpolation-filters="sRGB" filterUnits="userSpaceOnUse"><feFlood flood-opacity="0" result="BackgroundImageFix"/><feBlend in="SourceGraphic" in2="BackgroundImageFix" result="shape"/><feGaussianBlur result="effect1_foregroundBlur_239_431496" stdDeviation="20.893"/></filter><filter id="at" width="829.97" height="760.965" x="102.866" y="-354.019" color-interpolation-filters="sRGB" filterUnits="userSpaceOnUse"><feFlood flood-opacity="0" result="BackgroundImageFix"/><feBlend in="SourceGraphic" in2="BackgroundImageFix" result="shape"/><feGaussianBlur result="effect1_foregroundBlur_239_431496" stdDeviation="88.35"/></filter><filter id="av" width="450.65" height="422.074" x="187.093" y="-273.331" color-interpolation-filters="sRGB" filterUnits="userSpaceOnUse"><feFlood flood-opacity="0" result="BackgroundImageFix"/><feBlend in="SourceGraphic" in2="BackgroundImageFix" result="shape"/><feGaussianBlur result="effect1_foregroundBlur_239_431496" stdDeviation="60"/></filter><linearGradient id="c" x1="236.423" x2="468.376" y1="-182.994" y2="-43.071" gradientUnits="userSpaceOnUse"><stop stop-color="#fff"/><stop offset="1" stop-color="#B8F76E"/></linearGradient><linearGradient id="e" x1="249.179" x2="481.131" y1="-220.455" y2="-80.532" gradientUnits="userSpaceOnUse"><stop stop-color="#fff"/><stop offset="1" stop-color="#B8F76E"/></linearGradient><linearGradient id="g" x1="189.164" x2="421.117" y1="-197.721" y2="-57.798" gradientUnits="userSpaceOnUse"><stop stop-color="#fff"/><stop offset="1" stop-color="#B8F76E"/></linearGradient><linearGradient id="i" x1="259.416" x2="491.368" y1="-183.277" y2="-43.354" gradientUnits="userSpaceOnUse"><stop stop-color="#fff"/><stop offset="1" stop-color="#fff"/></linearGradient><linearGradient id="k" x1="245.141" x2="537.745" y1="-176.55" y2="-36.212" gradientUnits="userSpaceOnUse"><stop stop-color="#fff"/><stop offset="1" stop-color="#B8F76E"/></linearGradient><linearGradient id="m" x1="254.021" x2="546.625" y1="-218.412" y2="-78.074" gradientUnits="userSpaceOnUse"><stop stop-color="#fff"/><stop offset="1" stop-color="#B8F76E"/></linearGradient><linearGradient id="o" x1="191.658" x2="484.261" y1="-198.209" y2="-57.871" gradientUnits="userSpaceOnUse"><stop stop-color="#fff"/><stop offset="1" stop-color="#B8F76E"/></linearGradient><linearGradient id="q" x1="270.163" x2="562.766" y1="-174.588" y2="-34.25" gradientUnits="userSpaceOnUse"><stop stop-color="#fff"/><stop offset="1" stop-color="#fff"/></linearGradient><linearGradient id="s" x1="233.247" x2="519.384" y1="-171.753" y2="-33.452" gradientUnits="userSpaceOnUse"><stop stop-color="#fff"/><stop offset="1" stop-color="#B8F76E"/></linearGradient><linearGradient id="u" x1="242.262" x2="528.399" y1="-213.126" y2="-74.825" gradientUnits="userSpaceOnUse"><stop stop-color="#fff"/><stop offset="1" stop-color="#B8F76E"/></linearGradient><linearGradient id="w" x1="180.404" x2="466.541" y1="-192.027" y2="-53.726" gradientUnits="userSpaceOnUse"><stop stop-color="#fff"/><stop offset="1" stop-color="#B8F76E"/></linearGradient><linearGradient id="y" x1="258.012" x2="544.149" y1="-170.31" y2="-32.009" gradientUnits="userSpaceOnUse"><stop stop-color="#fff"/><stop offset="1" stop-color="#fff"/></linearGradient><linearGradient id="A" x1="280.757" x2="517.011" y1="-209.463" y2="49.514" gradientUnits="userSpaceOnUse"><stop stop-color="#fff"/><stop offset=".557" stop-color="#B8F76E"/><stop offset="1" stop-color="#B8F76E" stop-opacity=".3"/></linearGradient><linearGradient id="C" x1="326.268" x2="562.523" y1="-250.503" y2="8.475" gradientUnits="userSpaceOnUse"><stop stop-color="#fff"/><stop offset="1" stop-color="#B8F76E"/></linearGradient><linearGradient id="E" x1="215.908" x2="452.162" y1="-234.513" y2="24.465" gradientUnits="userSpaceOnUse"><stop stop-color="#fff"/><stop offset=".557" stop-color="#B8F76E"/><stop offset="1" stop-color="#B8F76E" stop-opacity=".3"/></linearGradient><linearGradient id="G" x1="266.539" x2="502.793" y1="-215.381" y2="43.597" gradientUnits="userSpaceOnUse"><stop stop-color="#fff"/><stop offset="1" stop-color="#fff"/></linearGradient><linearGradient id="I" x1="371.859" x2="608.113" y1="-122.566" y2="136.412" gradientUnits="userSpaceOnUse"><stop stop-color="#fff"/><stop offset="1" stop-color="#fff"/></linearGradient><linearGradient id="K" x1="261.723" x2="403.633" y1="-219.008" y2="-48.169" gradientUnits="userSpaceOnUse"><stop stop-color="#fff"/><stop offset="1" stop-color="#B8F76E"/></linearGradient><linearGradient id="M" x1="292.907" x2="434.817" y1="-253.894" y2="-83.055" gradientUnits="userSpaceOnUse"><stop stop-color="#fff"/><stop offset="1" stop-color="#B8F76E"/></linearGradient><linearGradient id="O" x1="214.565" x2="356.475" y1="-231.074" y2="-60.234" gradientUnits="userSpaceOnUse"><stop stop-color="#fff"/><stop offset="1" stop-color="#B8F76E"/></linearGradient><linearGradient id="Q" x1="287.983" x2="429.893" y1="-219.994" y2="-49.154" gradientUnits="userSpaceOnUse"><stop stop-color="#fff"/><stop offset="1" stop-color="#fff"/></linearGradient><linearGradient id="S" x1="256.602" x2="391.625" y1="-220.13" y2="-63.578" gradientUnits="userSpaceOnUse"><stop stop-color="#fff"/><stop offset="1" stop-color="#B8F76E"/></linearGradient><linearGradient id="U" x1="284.539" x2="419.563" y1="-252.72" y2="-96.168" gradientUnits="userSpaceOnUse"><stop stop-color="#fff"/><stop offset="1" stop-color="#B8F76E"/></linearGradient><linearGradient id="W" x1="213.901" x2="348.925" y1="-231.752" y2="-75.2" gradientUnits="userSpaceOnUse"><stop stop-color="#fff"/><stop offset="1" stop-color="#B8F76E"/></linearGradient><linearGradient id="Y" x1="280.326" x2="415.35" y1="-220.898" y2="-64.346" gradientUnits="userSpaceOnUse"><stop stop-color="#fff"/><stop offset="1" stop-color="#fff"/></linearGradient><linearGradient id="aa" x1="250.002" x2="379.962" y1="-220.855" y2="-82.705" gradientUnits="userSpaceOnUse"><stop stop-color="#fff"/><stop offset="1" stop-color="#B8F76E"/></linearGradient><linearGradient id="ac" x1="273.54" x2="403.5" y1="-251.098" y2="-112.948" gradientUnits="userSpaceOnUse"><stop stop-color="#fff"/><stop offset="1" stop-color="#B8F76E"/></linearGradient><linearGradient id="ae" x1="213.085" x2="343.046" y1="-232.34" y2="-94.189" gradientUnits="userSpaceOnUse"><stop stop-color="#fff"/><stop offset="1" stop-color="#B8F76E"/></linearGradient><linearGradient id="ag" x1="270.402" x2="400.362" y1="-221.26" y2="-83.11" gradientUnits="userSpaceOnUse"><stop stop-color="#fff"/><stop offset="1" stop-color="#fff"/></linearGradient><linearGradient id="ai" x1="271.099" x2="423.892" y1="-219.169" y2="-22.638" gradientUnits="userSpaceOnUse"><stop stop-color="#fff"/><stop offset=".557" stop-color="#B8F76E"/><stop offset="1" stop-color="#B8F76E" stop-opacity=".3"/></linearGradient><linearGradient id="ak" x1="289.031" x2="441.824" y1="-232.64" y2="-36.109" gradientUnits="userSpaceOnUse"><stop stop-color="#fff"/><stop offset=".557" stop-color="#B8F76E"/><stop offset="1" stop-color="#B8F76E" stop-opacity=".3"/></linearGradient><linearGradient id="am" x1="315.444" x2="468.237" y1="-253.325" y2="-56.794" gradientUnits="userSpaceOnUse"><stop stop-color="#fff"/><stop offset="1" stop-color="#B8F76E"/></linearGradient><linearGradient id="ao" x1="215.445" x2="368.238" y1="-231.859" y2="-35.328" gradientUnits="userSpaceOnUse"><stop stop-color="#fff"/><stop offset=".557" stop-color="#B8F76E"/><stop offset="1" stop-color="#B8F76E" stop-opacity=".3"/></linearGradient><linearGradient id="aq" x1="258.936" x2="411.729" y1="-222.264" y2="-25.733" gradientUnits="userSpaceOnUse"><stop stop-color="#fff"/><stop offset="1" stop-color="#fff"/></linearGradient><linearGradient id="as" x1="344.624" x2="497.417" y1="-163.356" y2="33.175" gradientUnits="userSpaceOnUse"><stop stop-color="#fff"/><stop offset="1" stop-color="#fff"/></linearGradient><linearGradient id="au" x1="14.352" x2="14.352" y1="0" y2="598.773" gradientUnits="userSpaceOnUse"><stop stop-color="#fff"/><stop offset="1" stop-color="#fff" stop-opacity="0"/></linearGradient><linearGradient id="aw" x1="10.68" x2="10.68" y1="0" y2="257.36" gradientUnits="userSpaceOnUse"><stop stop-color="#fff"/><stop offset="1" stop-color="#fff" stop-opacity="0"/></linearGradient></defs></svg>