<svg xmlns="http://www.w3.org/2000/svg" width="636" height="803" fill="none"><g opacity=".6" style="mix-blend-mode:plus-lighter"><g filter="url(#a)" opacity=".5"><g filter="url(#b)" opacity=".8"><path fill="url(#c)" d="m131.856 148.359-4.32 10.499 136.333 206.956 94.096 137.822-89.775-148.32-136.334-206.957z"/></g><g filter="url(#d)" opacity=".8"><path fill="url(#e)" d="m140.54 107.659-4.32 10.498 136.333 206.957 94.096 137.821-89.776-148.32L140.54 107.659z"/></g><g filter="url(#f)" opacity=".8" style="mix-blend-mode:soft-light"><path fill="url(#g)" d="m99.682 132.359-4.32 10.499 136.333 206.956 94.096 137.821-89.776-148.32L99.682 132.359z"/></g><g filter="url(#h)" opacity=".2" style="mix-blend-mode:plus-lighter"><path fill="url(#i)" d="m147.51 148.052-4.321 10.499 136.334 206.956 94.096 137.821-89.776-148.32L147.51 148.052z"/></g><g filter="url(#j)" opacity=".8"><path fill="url(#k)" d="m137.585 154.944-3.885 11.314 166.082 260.149 114.224 173.798-110.338-185.112-166.083-260.149z"/></g><g filter="url(#l)" opacity=".8"><path fill="url(#m)" d="m143.631 109.461-3.886 11.314 166.083 260.149 114.223 173.798L309.713 369.61 143.631 109.461z"/></g><g filter="url(#n)" opacity=".8" style="mix-blend-mode:soft-light"><path fill="url(#o)" d="m101.173 131.411-3.886 11.314L263.37 402.874l114.223 173.798L267.255 391.56 101.173 131.411z"/></g><g filter="url(#p)" opacity=".2" style="mix-blend-mode:plus-lighter"><path fill="url(#q)" d="m154.62 157.075-3.885 11.314 166.082 260.149 114.224 173.798-110.338-185.112L154.62 157.075z"/></g><g filter="url(#r)" opacity=".8"><path fill="url(#s)" d="m129.479 160.188-3.879 11.268 163.579 250.84L401.696 589.77 293.058 411.028l-163.579-250.84z"/></g><g filter="url(#t)" opacity=".8"><path fill="url(#u)" d="m135.617 115.236-3.879 11.268 163.579 250.841 112.517 167.474-108.638-178.742-163.579-250.841z"/></g><g filter="url(#v)" opacity=".8" style="mix-blend-mode:soft-light"><path fill="url(#w)" d="m93.503 138.16-3.88 11.268 163.58 250.84L365.72 567.743 257.082 389.001 93.502 138.16z"/></g><g filter="url(#x)" opacity=".2" style="mix-blend-mode:plus-lighter"><path fill="url(#y)" d="m146.34 161.756-3.879 11.268 163.579 250.84 112.517 167.474-108.638-178.742-163.579-250.84z"/></g><g filter="url(#z)" opacity=".8"><path fill="url(#A)" d="m165.108 118.382-9.638 13.434 145.48 301.186 101.888 201.115-92.251-214.549-145.479-301.186z"/></g><g filter="url(#B)" opacity=".8"><path fill="url(#C)" d="m196.093 73.793-9.638 13.434 145.48 301.186 101.888 201.115-92.25-214.549-145.48-301.185z"/></g><g filter="url(#D)" opacity=".8" style="mix-blend-mode:soft-light"><path fill="url(#E)" d="M120.958 91.166 111.32 104.6 256.8 405.786l101.888 201.115-92.251-214.549L120.958 91.166z"/></g><g filter="url(#F)" opacity=".2" style="mix-blend-mode:plus-lighter"><path fill="url(#G)" d="m155.428 111.953-9.637 13.434L291.27 426.572l101.888 201.115-92.25-214.549-145.48-301.185z"/></g><g filter="url(#H)" opacity=".2" style="mix-blend-mode:plus-lighter"><path fill="url(#I)" d="m227.132 212.796-9.638 13.434 145.48 301.185 101.888 201.116-92.25-214.55-145.48-301.185z"/></g></g><g opacity=".5"><g filter="url(#J)" opacity=".8"><path fill="url(#K)" d="m150.97 109.507-7.721 10.129 96.821 183.445 68.194 121.922-60.473-132.051-96.821-183.445z"/></g><g filter="url(#L)" opacity=".8"><path fill="url(#M)" d="m172.2 71.603-7.721 10.13L261.3 265.176l68.195 121.922-60.473-132.051L172.2 71.603z"/></g><g filter="url(#N)" opacity=".8" style="mix-blend-mode:soft-light"><path fill="url(#O)" d="m118.864 96.398-7.722 10.129 96.822 183.444 68.194 121.922-60.473-132.05-96.821-183.445z"/></g><g filter="url(#P)" opacity=".2" style="mix-blend-mode:plus-lighter"><path fill="url(#Q)" d="m168.849 108.437-7.722 10.128 96.822 183.445 68.194 121.922-60.473-132.051-96.821-183.444z"/></g></g><g opacity=".5"><g filter="url(#R)" opacity=".8"><path fill="url(#S)" d="m147.071 108.579-6.979 9.385 88.279 173.344 62.159 115.264-55.181-124.649-88.278-173.344z"/></g><g filter="url(#T)" opacity=".8"><path fill="url(#U)" d="m166.091 73.17-6.979 9.385 88.279 173.344 62.159 115.263-55.18-124.648-88.279-173.345z"/></g><g filter="url(#V)" opacity=".8" style="mix-blend-mode:soft-light"><path fill="url(#W)" d="m118 95.95-6.979 9.386L199.3 278.68l62.159 115.263-55.18-124.648L118 95.951z"/></g><g filter="url(#X)" opacity=".2" style="mix-blend-mode:plus-lighter"><path fill="url(#Y)" d="m163.223 107.744-6.979 9.385 88.279 173.345 62.159 115.263-55.18-124.649-88.279-173.344z"/></g></g><g filter="url(#Z)" opacity=".8"><path fill="url(#aa)" d="m142.046 108.095-6.003 8.556 77.581 164.814 54.588 109.699-48.586-118.255-77.58-164.814z"/></g><g filter="url(#ab)" opacity=".8"><path fill="url(#ac)" d="m158.071 75.236-6.003 8.555 77.581 164.814 54.588 109.7-48.586-118.255-77.58-164.814z"/></g><g filter="url(#ad)" opacity=".8" style="mix-blend-mode:soft-light"><path fill="url(#ae)" d="m116.913 95.617-6.003 8.555 77.581 164.814 54.588 109.7-48.586-118.255-77.58-164.814z"/></g><g filter="url(#af)" opacity=".2" style="mix-blend-mode:plus-lighter"><path fill="url(#ag)" d="m155.935 107.655-6.003 8.555 77.581 164.814 54.588 109.7-48.585-118.255-77.581-164.814z"/></g><g opacity=".5"><g filter="url(#ah)" opacity=".8"><path fill="url(#ai)" d="m158.132 108.816-9.138 11.47L261.91 320.663l79.569 133.056-70.431-144.526-112.916-200.377z"/></g><g filter="url(#aj)" opacity=".8"><path fill="url(#ak)" d="m170.34 94.18-9.138 11.47 112.916 200.377 79.57 133.056-70.432-144.526L170.34 94.18z"/></g><g filter="url(#al)" opacity=".8"><path fill="url(#am)" d="m188.322 71.706-9.138 11.47 112.917 200.376 79.569 133.056-70.432-144.525L188.322 71.706z"/></g><g filter="url(#an)" opacity=".8" style="mix-blend-mode:soft-light"><path fill="url(#ao)" d="m120.241 95.028-9.138 11.47 112.916 200.377 79.57 133.056-70.432-144.525L120.241 95.028z"/></g><g filter="url(#ap)" opacity=".2" style="mix-blend-mode:plus-lighter"><path fill="url(#aq)" d="m149.851 105.454-9.138 11.469L253.629 317.3l79.569 133.056-70.431-144.525-112.916-200.377z"/></g><g filter="url(#ar)" opacity=".2" style="mix-blend-mode:plus-lighter"><path fill="url(#as)" d="m208.189 169.457-9.138 11.469 112.916 200.377 79.57 133.056-70.432-144.525-112.916-200.377z"/></g></g></g><g filter="url(#at)"><path fill="url(#au)" fill-opacity=".2" d="M0 0h26.967v522.3H0z" transform="matrix(-.46707 .88422 .5971 .80217 171.231 159.096)"/></g><g filter="url(#av)"><path fill="url(#aw)" d="M0 0h20.067v224.491H0z" transform="matrix(-.46707 .88422 .5971 .80217 186.749 185.159)"/></g><defs><filter id="a" width="522.594" height="802.093" x="15.946" y=".116" color-interpolation-filters="sRGB" filterUnits="userSpaceOnUse"><feFlood flood-opacity="0" result="BackgroundImageFix"/><feBlend in="SourceGraphic" in2="BackgroundImageFix" result="shape"/><feGaussianBlur result="effect1_foregroundBlur_236_430595" stdDeviation="36.839"/></filter><filter id="b" width="357.319" height="482.166" x="64.091" y="84.914" color-interpolation-filters="sRGB" filterUnits="userSpaceOnUse"><feFlood flood-opacity="0" result="BackgroundImageFix"/><feBlend in="SourceGraphic" in2="BackgroundImageFix" result="shape"/><feGaussianBlur result="effect1_foregroundBlur_236_430595" stdDeviation="31.723"/></filter><filter id="d" width="357.319" height="482.166" x="72.775" y="44.214" color-interpolation-filters="sRGB" filterUnits="userSpaceOnUse"><feFlood flood-opacity="0" result="BackgroundImageFix"/><feBlend in="SourceGraphic" in2="BackgroundImageFix" result="shape"/><feGaussianBlur result="effect1_foregroundBlur_236_430595" stdDeviation="31.723"/></filter><filter id="f" width="357.319" height="482.166" x="31.916" y="68.914" color-interpolation-filters="sRGB" filterUnits="userSpaceOnUse"><feFlood flood-opacity="0" result="BackgroundImageFix"/><feBlend in="SourceGraphic" in2="BackgroundImageFix" result="shape"/><feGaussianBlur result="effect1_foregroundBlur_236_430595" stdDeviation="31.723"/></filter><filter id="h" width="302.617" height="427.464" x="107.096" y="111.958" color-interpolation-filters="sRGB" filterUnits="userSpaceOnUse"><feFlood flood-opacity="0" result="BackgroundImageFix"/><feBlend in="SourceGraphic" in2="BackgroundImageFix" result="shape"/><feGaussianBlur result="effect1_foregroundBlur_236_430595" stdDeviation="18.047"/></filter><filter id="j" width="407.196" height="572.151" x="70.254" y="91.499" color-interpolation-filters="sRGB" filterUnits="userSpaceOnUse"><feFlood flood-opacity="0" result="BackgroundImageFix"/><feBlend in="SourceGraphic" in2="BackgroundImageFix" result="shape"/><feGaussianBlur result="effect1_foregroundBlur_236_430595" stdDeviation="31.723"/></filter><filter id="l" width="407.196" height="572.151" x="76.3" y="46.016" color-interpolation-filters="sRGB" filterUnits="userSpaceOnUse"><feFlood flood-opacity="0" result="BackgroundImageFix"/><feBlend in="SourceGraphic" in2="BackgroundImageFix" result="shape"/><feGaussianBlur result="effect1_foregroundBlur_236_430595" stdDeviation="31.723"/></filter><filter id="n" width="407.196" height="572.151" x="33.842" y="67.966" color-interpolation-filters="sRGB" filterUnits="userSpaceOnUse"><feFlood flood-opacity="0" result="BackgroundImageFix"/><feBlend in="SourceGraphic" in2="BackgroundImageFix" result="shape"/><feGaussianBlur result="effect1_foregroundBlur_236_430595" stdDeviation="31.723"/></filter><filter id="p" width="352.494" height="517.449" x="114.641" y="120.981" color-interpolation-filters="sRGB" filterUnits="userSpaceOnUse"><feFlood flood-opacity="0" result="BackgroundImageFix"/><feBlend in="SourceGraphic" in2="BackgroundImageFix" result="shape"/><feGaussianBlur result="effect1_foregroundBlur_236_430595" stdDeviation="18.047"/></filter><filter id="r" width="402.986" height="556.472" x="62.155" y="96.743" color-interpolation-filters="sRGB" filterUnits="userSpaceOnUse"><feFlood flood-opacity="0" result="BackgroundImageFix"/><feBlend in="SourceGraphic" in2="BackgroundImageFix" result="shape"/><feGaussianBlur result="effect1_foregroundBlur_236_430595" stdDeviation="31.723"/></filter><filter id="t" width="402.986" height="556.472" x="68.293" y="51.791" color-interpolation-filters="sRGB" filterUnits="userSpaceOnUse"><feFlood flood-opacity="0" result="BackgroundImageFix"/><feBlend in="SourceGraphic" in2="BackgroundImageFix" result="shape"/><feGaussianBlur result="effect1_foregroundBlur_236_430595" stdDeviation="31.723"/></filter><filter id="v" width="402.986" height="556.472" x="26.179" y="74.715" color-interpolation-filters="sRGB" filterUnits="userSpaceOnUse"><feFlood flood-opacity="0" result="BackgroundImageFix"/><feBlend in="SourceGraphic" in2="BackgroundImageFix" result="shape"/><feGaussianBlur result="effect1_foregroundBlur_236_430595" stdDeviation="31.723"/></filter><filter id="x" width="348.284" height="501.77" x="106.367" y="125.662" color-interpolation-filters="sRGB" filterUnits="userSpaceOnUse"><feFlood flood-opacity="0" result="BackgroundImageFix"/><feBlend in="SourceGraphic" in2="BackgroundImageFix" result="shape"/><feGaussianBlur result="effect1_foregroundBlur_236_430595" stdDeviation="18.047"/></filter><filter id="z" width="374.258" height="642.625" x="92.025" y="54.937" color-interpolation-filters="sRGB" filterUnits="userSpaceOnUse"><feFlood flood-opacity="0" result="BackgroundImageFix"/><feBlend in="SourceGraphic" in2="BackgroundImageFix" result="shape"/><feGaussianBlur result="effect1_foregroundBlur_236_430595" stdDeviation="31.723"/></filter><filter id="B" width="374.258" height="642.625" x="123.01" y="10.348" color-interpolation-filters="sRGB" filterUnits="userSpaceOnUse"><feFlood flood-opacity="0" result="BackgroundImageFix"/><feBlend in="SourceGraphic" in2="BackgroundImageFix" result="shape"/><feGaussianBlur result="effect1_foregroundBlur_236_430595" stdDeviation="31.723"/></filter><filter id="D" width="374.258" height="642.625" x="47.875" y="27.721" color-interpolation-filters="sRGB" filterUnits="userSpaceOnUse"><feFlood flood-opacity="0" result="BackgroundImageFix"/><feBlend in="SourceGraphic" in2="BackgroundImageFix" result="shape"/><feGaussianBlur result="effect1_foregroundBlur_236_430595" stdDeviation="31.723"/></filter><filter id="F" width="319.556" height="587.922" x="109.697" y="75.859" color-interpolation-filters="sRGB" filterUnits="userSpaceOnUse"><feFlood flood-opacity="0" result="BackgroundImageFix"/><feBlend in="SourceGraphic" in2="BackgroundImageFix" result="shape"/><feGaussianBlur result="effect1_foregroundBlur_236_430595" stdDeviation="18.047"/></filter><filter id="H" width="319.556" height="587.923" x="181.401" y="176.702" color-interpolation-filters="sRGB" filterUnits="userSpaceOnUse"><feFlood flood-opacity="0" result="BackgroundImageFix"/><feBlend in="SourceGraphic" in2="BackgroundImageFix" result="shape"/><feGaussianBlur result="effect1_foregroundBlur_236_430595" stdDeviation="18.047"/></filter><filter id="J" width="291.905" height="442.385" x="79.804" y="46.062" color-interpolation-filters="sRGB" filterUnits="userSpaceOnUse"><feFlood flood-opacity="0" result="BackgroundImageFix"/><feBlend in="SourceGraphic" in2="BackgroundImageFix" result="shape"/><feGaussianBlur result="effect1_foregroundBlur_236_430595" stdDeviation="31.723"/></filter><filter id="L" width="291.905" height="442.385" x="101.034" y="8.159" color-interpolation-filters="sRGB" filterUnits="userSpaceOnUse"><feFlood flood-opacity="0" result="BackgroundImageFix"/><feBlend in="SourceGraphic" in2="BackgroundImageFix" result="shape"/><feGaussianBlur result="effect1_foregroundBlur_236_430595" stdDeviation="31.723"/></filter><filter id="N" width="291.906" height="442.385" x="47.697" y="32.953" color-interpolation-filters="sRGB" filterUnits="userSpaceOnUse"><feFlood flood-opacity="0" result="BackgroundImageFix"/><feBlend in="SourceGraphic" in2="BackgroundImageFix" result="shape"/><feGaussianBlur result="effect1_foregroundBlur_236_430595" stdDeviation="31.723"/></filter><filter id="P" width="237.203" height="387.683" x="125.033" y="72.343" color-interpolation-filters="sRGB" filterUnits="userSpaceOnUse"><feFlood flood-opacity="0" result="BackgroundImageFix"/><feBlend in="SourceGraphic" in2="BackgroundImageFix" result="shape"/><feGaussianBlur result="effect1_foregroundBlur_236_430595" stdDeviation="18.047"/></filter><filter id="R" width="277.328" height="424.883" x="76.647" y="45.134" color-interpolation-filters="sRGB" filterUnits="userSpaceOnUse"><feFlood flood-opacity="0" result="BackgroundImageFix"/><feBlend in="SourceGraphic" in2="BackgroundImageFix" result="shape"/><feGaussianBlur result="effect1_foregroundBlur_236_430595" stdDeviation="31.723"/></filter><filter id="T" width="277.328" height="424.883" x="95.668" y="9.724" color-interpolation-filters="sRGB" filterUnits="userSpaceOnUse"><feFlood flood-opacity="0" result="BackgroundImageFix"/><feBlend in="SourceGraphic" in2="BackgroundImageFix" result="shape"/><feGaussianBlur result="effect1_foregroundBlur_236_430595" stdDeviation="31.723"/></filter><filter id="V" width="277.328" height="424.883" x="47.576" y="32.506" color-interpolation-filters="sRGB" filterUnits="userSpaceOnUse"><feFlood flood-opacity="0" result="BackgroundImageFix"/><feBlend in="SourceGraphic" in2="BackgroundImageFix" result="shape"/><feGaussianBlur result="effect1_foregroundBlur_236_430595" stdDeviation="31.723"/></filter><filter id="X" width="222.626" height="370.181" x="120.151" y="71.65" color-interpolation-filters="sRGB" filterUnits="userSpaceOnUse"><feFlood flood-opacity="0" result="BackgroundImageFix"/><feBlend in="SourceGraphic" in2="BackgroundImageFix" result="shape"/><feGaussianBlur result="effect1_foregroundBlur_236_430595" stdDeviation="18.047"/></filter><filter id="Z" width="259.059" height="409.959" x="72.598" y="44.65" color-interpolation-filters="sRGB" filterUnits="userSpaceOnUse"><feFlood flood-opacity="0" result="BackgroundImageFix"/><feBlend in="SourceGraphic" in2="BackgroundImageFix" result="shape"/><feGaussianBlur result="effect1_foregroundBlur_236_430595" stdDeviation="31.723"/></filter><filter id="ab" width="259.059" height="409.959" x="88.623" y="11.791" color-interpolation-filters="sRGB" filterUnits="userSpaceOnUse"><feFlood flood-opacity="0" result="BackgroundImageFix"/><feBlend in="SourceGraphic" in2="BackgroundImageFix" result="shape"/><feGaussianBlur result="effect1_foregroundBlur_236_430595" stdDeviation="31.723"/></filter><filter id="ad" width="259.059" height="409.959" x="47.465" y="32.172" color-interpolation-filters="sRGB" filterUnits="userSpaceOnUse"><feFlood flood-opacity="0" result="BackgroundImageFix"/><feBlend in="SourceGraphic" in2="BackgroundImageFix" result="shape"/><feGaussianBlur result="effect1_foregroundBlur_236_430595" stdDeviation="31.723"/></filter><filter id="af" width="204.357" height="355.257" x="113.838" y="71.561" color-interpolation-filters="sRGB" filterUnits="userSpaceOnUse"><feFlood flood-opacity="0" result="BackgroundImageFix"/><feBlend in="SourceGraphic" in2="BackgroundImageFix" result="shape"/><feGaussianBlur result="effect1_foregroundBlur_236_430595" stdDeviation="18.047"/></filter><filter id="ah" width="319.375" height="471.793" x="85.549" y="45.371" color-interpolation-filters="sRGB" filterUnits="userSpaceOnUse"><feFlood flood-opacity="0" result="BackgroundImageFix"/><feBlend in="SourceGraphic" in2="BackgroundImageFix" result="shape"/><feGaussianBlur result="effect1_foregroundBlur_236_430595" stdDeviation="31.723"/></filter><filter id="aj" width="319.375" height="471.793" x="97.757" y="30.735" color-interpolation-filters="sRGB" filterUnits="userSpaceOnUse"><feFlood flood-opacity="0" result="BackgroundImageFix"/><feBlend in="SourceGraphic" in2="BackgroundImageFix" result="shape"/><feGaussianBlur result="effect1_foregroundBlur_236_430595" stdDeviation="31.723"/></filter><filter id="al" width="319.376" height="471.793" x="115.74" y="8.261" color-interpolation-filters="sRGB" filterUnits="userSpaceOnUse"><feFlood flood-opacity="0" result="BackgroundImageFix"/><feBlend in="SourceGraphic" in2="BackgroundImageFix" result="shape"/><feGaussianBlur result="effect1_foregroundBlur_236_430595" stdDeviation="31.723"/></filter><filter id="an" width="319.376" height="471.793" x="47.658" y="31.583" color-interpolation-filters="sRGB" filterUnits="userSpaceOnUse"><feFlood flood-opacity="0" result="BackgroundImageFix"/><feBlend in="SourceGraphic" in2="BackgroundImageFix" result="shape"/><feGaussianBlur result="effect1_foregroundBlur_236_430595" stdDeviation="31.723"/></filter><filter id="ap" width="264.673" height="417.091" x="104.619" y="69.36" color-interpolation-filters="sRGB" filterUnits="userSpaceOnUse"><feFlood flood-opacity="0" result="BackgroundImageFix"/><feBlend in="SourceGraphic" in2="BackgroundImageFix" result="shape"/><feGaussianBlur result="effect1_foregroundBlur_236_430595" stdDeviation="18.047"/></filter><filter id="ar" width="264.673" height="417.091" x="162.957" y="133.363" color-interpolation-filters="sRGB" filterUnits="userSpaceOnUse"><feFlood flood-opacity="0" result="BackgroundImageFix"/><feBlend in="SourceGraphic" in2="BackgroundImageFix" result="shape"/><feGaussianBlur result="effect1_foregroundBlur_236_430595" stdDeviation="18.047"/></filter><filter id="at" width="629.72" height="748.081" x="6.004" y="6.465" color-interpolation-filters="sRGB" filterUnits="userSpaceOnUse"><feFlood flood-opacity="0" result="BackgroundImageFix"/><feBlend in="SourceGraphic" in2="BackgroundImageFix" result="shape"/><feGaussianBlur result="effect1_foregroundBlur_236_430595" stdDeviation="76.316"/></filter><filter id="av" width="350.723" height="405.133" x="73.722" y="81.505" color-interpolation-filters="sRGB" filterUnits="userSpaceOnUse"><feFlood flood-opacity="0" result="BackgroundImageFix"/><feBlend in="SourceGraphic" in2="BackgroundImageFix" result="shape"/><feGaussianBlur result="effect1_foregroundBlur_236_430595" stdDeviation="51.827"/></filter><linearGradient id="c" x1="129.696" x2="319.117" y1="153.609" y2="231.558" gradientUnits="userSpaceOnUse"><stop stop-color="#070708"/><stop offset="1" stop-color="#B8F76E"/></linearGradient><linearGradient id="e" x1="138.38" x2="327.801" y1="112.908" y2="190.857" gradientUnits="userSpaceOnUse"><stop stop-color="#070708"/><stop offset="1" stop-color="#B8F76E"/></linearGradient><linearGradient id="g" x1="97.522" x2="286.943" y1="137.608" y2="215.558" gradientUnits="userSpaceOnUse"><stop stop-color="#070708"/><stop offset="1" stop-color="#B8F76E"/></linearGradient><linearGradient id="i" x1="145.35" x2="334.771" y1="153.301" y2="231.25" gradientUnits="userSpaceOnUse"><stop stop-color="#fff"/><stop offset="1" stop-color="#fff"/></linearGradient><linearGradient id="k" x1="135.642" x2="364.121" y1="160.601" y2="239.069" gradientUnits="userSpaceOnUse"><stop stop-color="#070708"/><stop offset="1" stop-color="#B8F76E"/></linearGradient><linearGradient id="m" x1="141.688" x2="370.166" y1="115.118" y2="193.586" gradientUnits="userSpaceOnUse"><stop stop-color="#070708"/><stop offset="1" stop-color="#B8F76E"/></linearGradient><linearGradient id="o" x1="99.23" x2="327.708" y1="137.068" y2="215.536" gradientUnits="userSpaceOnUse"><stop stop-color="#070708"/><stop offset="1" stop-color="#B8F76E"/></linearGradient><linearGradient id="q" x1="152.677" x2="381.156" y1="162.732" y2="241.2" gradientUnits="userSpaceOnUse"><stop stop-color="#fff"/><stop offset="1" stop-color="#fff"/></linearGradient><linearGradient id="s" x1="127.539" x2="350.989" y1="165.822" y2="242.742" gradientUnits="userSpaceOnUse"><stop stop-color="#070708"/><stop offset="1" stop-color="#B8F76E"/></linearGradient><linearGradient id="u" x1="133.677" x2="357.127" y1="120.87" y2="197.791" gradientUnits="userSpaceOnUse"><stop stop-color="#070708"/><stop offset="1" stop-color="#B8F76E"/></linearGradient><linearGradient id="w" x1="91.563" x2="315.013" y1="143.794" y2="220.715" gradientUnits="userSpaceOnUse"><stop stop-color="#070708"/><stop offset="1" stop-color="#B8F76E"/></linearGradient><linearGradient id="y" x1="144.4" x2="367.85" y1="167.39" y2="244.31" gradientUnits="userSpaceOnUse"><stop stop-color="#fff"/><stop offset="1" stop-color="#fff"/></linearGradient><linearGradient id="A" x1="160.289" x2="398.989" y1="125.099" y2="296.343" gradientUnits="userSpaceOnUse"><stop stop-color="#070708"/><stop offset=".557" stop-color="#B8F76E"/><stop offset="1" stop-color="#B8F76E" stop-opacity=".3"/></linearGradient><linearGradient id="C" x1="191.274" x2="429.974" y1="80.51" y2="251.754" gradientUnits="userSpaceOnUse"><stop stop-color="#070708"/><stop offset="1" stop-color="#B8F76E"/></linearGradient><linearGradient id="E" x1="116.139" x2="354.839" y1="97.883" y2="269.127" gradientUnits="userSpaceOnUse"><stop stop-color="#070708"/><stop offset=".557" stop-color="#B8F76E"/><stop offset="1" stop-color="#B8F76E" stop-opacity=".3"/></linearGradient><linearGradient id="G" x1="150.609" x2="389.309" y1="118.67" y2="289.913" gradientUnits="userSpaceOnUse"><stop stop-color="#fff"/><stop offset="1" stop-color="#fff"/></linearGradient><linearGradient id="I" x1="222.313" x2="461.013" y1="219.513" y2="390.757" gradientUnits="userSpaceOnUse"><stop stop-color="#fff"/><stop offset="1" stop-color="#fff"/></linearGradient><linearGradient id="K" x1="147.109" x2="296.79" y1="114.572" y2="228.677" gradientUnits="userSpaceOnUse"><stop stop-color="#070708"/><stop offset="1" stop-color="#B8F76E"/></linearGradient><linearGradient id="M" x1="168.34" x2="318.02" y1="76.668" y2="190.773" gradientUnits="userSpaceOnUse"><stop stop-color="#070708"/><stop offset="1" stop-color="#B8F76E"/></linearGradient><linearGradient id="O" x1="115.003" x2="264.684" y1="101.462" y2="215.568" gradientUnits="userSpaceOnUse"><stop stop-color="#070708"/><stop offset="1" stop-color="#B8F76E"/></linearGradient><linearGradient id="Q" x1="164.988" x2="314.669" y1="113.501" y2="227.606" gradientUnits="userSpaceOnUse"><stop stop-color="#fff"/><stop offset="1" stop-color="#fff"/></linearGradient><linearGradient id="S" x1="143.582" x2="283.431" y1="113.272" y2="217.263" gradientUnits="userSpaceOnUse"><stop stop-color="#070708"/><stop offset="1" stop-color="#B8F76E"/></linearGradient><linearGradient id="U" x1="162.602" x2="302.451" y1="77.862" y2="181.853" gradientUnits="userSpaceOnUse"><stop stop-color="#070708"/><stop offset="1" stop-color="#B8F76E"/></linearGradient><linearGradient id="W" x1="114.511" x2="254.36" y1="100.643" y2="204.634" gradientUnits="userSpaceOnUse"><stop stop-color="#070708"/><stop offset="1" stop-color="#B8F76E"/></linearGradient><linearGradient id="Y" x1="159.734" x2="299.583" y1="112.437" y2="216.428" gradientUnits="userSpaceOnUse"><stop stop-color="#fff"/><stop offset="1" stop-color="#fff"/></linearGradient><linearGradient id="aa" x1="139.044" x2="268.523" y1="112.373" y2="203.219" gradientUnits="userSpaceOnUse"><stop stop-color="#070708"/><stop offset="1" stop-color="#B8F76E"/></linearGradient><linearGradient id="ac" x1="155.069" x2="284.548" y1="79.513" y2="170.36" gradientUnits="userSpaceOnUse"><stop stop-color="#070708"/><stop offset="1" stop-color="#B8F76E"/></linearGradient><linearGradient id="ae" x1="113.911" x2="243.39" y1="99.894" y2="190.741" gradientUnits="userSpaceOnUse"><stop stop-color="#070708"/><stop offset="1" stop-color="#B8F76E"/></linearGradient><linearGradient id="ag" x1="152.934" x2="282.412" y1="111.932" y2="202.779" gradientUnits="userSpaceOnUse"><stop stop-color="#fff"/><stop offset="1" stop-color="#fff"/></linearGradient><linearGradient id="ai" x1="153.563" x2="320.292" y1="114.551" y2="247.381" gradientUnits="userSpaceOnUse"><stop stop-color="#070708"/><stop offset=".557" stop-color="#B8F76E"/><stop offset="1" stop-color="#B8F76E" stop-opacity=".3"/></linearGradient><linearGradient id="ak" x1="165.771" x2="332.5" y1="99.915" y2="232.746" gradientUnits="userSpaceOnUse"><stop stop-color="#070708"/><stop offset=".557" stop-color="#B8F76E"/><stop offset="1" stop-color="#B8F76E" stop-opacity=".3"/></linearGradient><linearGradient id="am" x1="183.753" x2="350.483" y1="77.44" y2="210.271" gradientUnits="userSpaceOnUse"><stop stop-color="#070708"/><stop offset="1" stop-color="#B8F76E"/></linearGradient><linearGradient id="ao" x1="115.672" x2="282.402" y1="100.763" y2="233.594" gradientUnits="userSpaceOnUse"><stop stop-color="#070708"/><stop offset=".557" stop-color="#B8F76E"/><stop offset="1" stop-color="#B8F76E" stop-opacity=".3"/></linearGradient><linearGradient id="aq" x1="145.282" x2="312.011" y1="111.188" y2="244.019" gradientUnits="userSpaceOnUse"><stop stop-color="#fff"/><stop offset="1" stop-color="#fff"/></linearGradient><linearGradient id="as" x1="203.62" x2="370.349" y1="175.191" y2="308.022" gradientUnits="userSpaceOnUse"><stop stop-color="#fff"/><stop offset="1" stop-color="#fff"/></linearGradient><linearGradient id="au" x1="13.483" x2="13.483" y1="0" y2="522.3" gradientUnits="userSpaceOnUse"><stop stop-color="#fff"/><stop offset="1" stop-color="#fff" stop-opacity="0"/></linearGradient><linearGradient id="aw" x1="10.033" x2="10.033" y1="0" y2="224.491" gradientUnits="userSpaceOnUse"><stop stop-color="#fff"/><stop offset="1" stop-color="#fff" stop-opacity="0"/></linearGradient></defs></svg>