<svg xmlns="http://www.w3.org/2000/svg" width="1440" height="816" fill="none">
    <g clip-path="url(#a)">
        <g clip-path="url(#b)">
            <path stroke="#28282f"
                d="M.5 0v816M40.833 0v816M81.167 0v816M121.5 0v816M161.833 0v816M202.167 0v816M242.5 0v816M282.833 0v816M323.167 0v816M363.5 0v816M403.833 0v816M444.167 0v816M484.5 0v816M524.833 0v816M565.167 0v816M605.5 0v816M645.833 0v816M686.167 0v816M726.5 0v816M766.833 0v816M807.167 0v816M847.5 0v816M887.833 0v816M928.167 0l-.001 816M968.5 0v816m40.33-816v816m40.34-816v816M1089.5 0v816m40.33-816v816m40.34-816v816M1210.5 0v816m40.33-816v816m40.34-816v816M1331.5 0v816m40.33-816v816m40.34-816v816M1452 .5H0m1452 40.371H0m1452 40.371H0m1452 40.371H0m1452 40.371H0m1452 40.371H0m1452 40.371H0m1452 40.371H0m1452 40.372L0 323.468m1452 40.372L0 363.839m1452 40.372H0m1452 40.371H0m1452 40.371H0m1452 40.371H0m1452 40.371H0m1452 40.371H0m1452 40.371H0m1452 40.371H0m1452 40.371H0m1452 40.371H0m1452 40.371H0" />
            <path fill="url(#c)" d="M0 0h1440v818H0z" />
        </g>
    </g>
    <defs>
        <clipPath id="a">
            <path fill="#fff" d="M0 0h1440v816H0z" />
        </clipPath>
        <clipPath id="b">
            <path fill="#fff" d="M0 0h1440v816H0z" />
        </clipPath>
        <linearGradient id="c" x1="720" x2="720" y1="0" y2="921.765" gradientUnits="userSpaceOnUse">
            <stop offset=".091" stop-color="#161513" stop-opacity="0" />
            <stop offset=".857" stop-color="#161513" />
        </linearGradient>
    </defs>
</svg>